<svg height="360" viewBox="0 0 640 360" width="640" xmlns="http://www.w3.org/2000/svg">
<rect fill="#e9dfc9" height="360" width="640"/>
<circle fill="#a99a7c" opacity="0.3449" r="0.021" transform="matrix(36 0 0 -36 547.154 3.163)"/>
<circle fill="#a99a7c" opacity="0.5071" r="0.028" transform="matrix(36 0 0 -36 544.438 6.761)"/>
<circle fill="#a99a7c" opacity="0.3735" r="0.028" transform="matrix(36 0 0 -36 -52.242 7.793)"/>
<circle fill="#a99a7c" opacity="0.5271" r="0.018" transform="matrix(36 0 0 -36 710.009 22.925)"/>
<circle fill="#a99a7c" opacity="0.2993" r="0.041" transform="matrix(36 0 0 -36 524.504 26.455)"/>
<circle fill="#a99a7c" opacity="0.4248" r="0.022" transform="matrix(36 0 0 -36 367.345 30.045)"/>
<circle fill="#a99a7c" opacity="0.3834" r="0.036" transform="matrix(36 0 0 -36 580.904 30.182)"/>
<circle fill="#a99a7c" opacity="0.2591" r="0.034" transform="matrix(36 0 0 -36 386.303 32.991)"/>
<circle fill="#a99a7c" opacity="0.3003" r="0.04" transform="matrix(36 0 0 -36 -22.479 37.778)"/>
<circle fill="#a99a7c" opacity="0.3283" r="0.032" transform="matrix(36 0 0 -36 546.255 37.926)"/>
<circle fill="#a99a7c" opacity="0.5359" r="0.027" transform="matrix(36 0 0 -36 613.905 49.41)"/>
<circle fill="#a99a7c" opacity="0.3589" r="0.032" transform="matrix(36 0 0 -36 257.304 56.887)"/>
<circle fill="#a99a7c" opacity="0.2725" r="0.022" transform="matrix(36 0 0 -36 367.632 57.185)"/>
<circle fill="#a99a7c" opacity="0.4804" r="0.023" transform="matrix(36 0 0 -36 506.907 66.779)"/>
<circle fill="#a99a7c" opacity="0.5345" r="0.024" transform="matrix(36 0 0 -36 116.861 67.77)"/>
<circle fill="#a99a7c" opacity="0.5282" r="0.033" transform="matrix(36 0 0 -36 533.694 71.33)"/>
<circle fill="#a99a7c" opacity="0.3444" r="0.025" transform="matrix(36 0 0 -36 -68.715 71.478)"/>
<circle fill="#a99a7c" opacity="0.5281" r="0.034" transform="matrix(36 0 0 -36 22.058 72.675)"/>
<circle fill="#a99a7c" opacity="0.504" r="0.019" transform="matrix(36 0 0 -36 696.073 74.353)"/>
<circle fill="#a99a7c" opacity="0.4488" r="0.022" transform="matrix(36 0 0 -36 424.024 76.189)"/>
<circle fill="#a99a7c" opacity="0.4622" r="0.03" transform="matrix(36 0 0 -36 149.314 78.941)"/>
<circle fill="#a99a7c" opacity="0.4258" r="0.016" transform="matrix(36 0 0 -36 568.987 81.474)"/>
<circle fill="#a99a7c" opacity="0.515" r="0.043" transform="matrix(36 0 0 -36 192.112 81.547)"/>
<circle fill="#a99a7c" opacity="0.391" r="0.043" transform="matrix(36 0 0 -36 345.503 83.058)"/>
<circle fill="#a99a7c" opacity="0.5292" r="0.033" transform="matrix(36 0 0 -36 487.52 84.78)"/>
<circle fill="#a99a7c" opacity="0.5472" r="0.044" transform="matrix(36 0 0 -36 257.782 87.613)"/>
<circle fill="#a99a7c" opacity="0.2661" r="0.017" transform="matrix(36 0 0 -36 116.039 90.765)"/>
<circle fill="#a99a7c" opacity="0.3944" r="0.038" transform="matrix(36 0 0 -36 633.299 93.871)"/>
<circle fill="#a99a7c" opacity="0.3452" r="0.017" transform="matrix(36 0 0 -36 167.067 98.171)"/>
<circle fill="#a99a7c" opacity="0.3288" r="0.032" transform="matrix(36 0 0 -36 444.726 100.677)"/>
<circle fill="#a99a7c" opacity="0.3427" r="0.043" transform="matrix(36 0 0 -36 153.179 109.263)"/>
<circle fill="#a99a7c" opacity="0.4733" r="0.03" transform="matrix(36 0 0 -36 -19.794 110.982)"/>
<circle fill="#a99a7c" opacity="0.3088" r="0.042" transform="matrix(36 0 0 -36 672.966 113.815)"/>
<circle fill="#a99a7c" opacity="0.5208" r="0.032" transform="matrix(36 0 0 -36 -36.721 133.856)"/>
<circle fill="#a99a7c" opacity="0.2891" r="0.023" transform="matrix(36 0 0 -36 502.77 134.025)"/>
<circle fill="#a99a7c" opacity="0.2762" r="0.017" transform="matrix(36 0 0 -36 344.089 143.134)"/>
<circle fill="#a99a7c" opacity="0.4048" r="0.031" transform="matrix(36 0 0 -36 60.785 144.635)"/>
<circle fill="#a99a7c" opacity="0.3856" r="0.016" transform="matrix(36 0 0 -36 688.522 161.783)"/>
<circle fill="#a99a7c" opacity="0.2831" r="0.026" transform="matrix(36 0 0 -36 625.436 164.206)"/>
<circle fill="#a99a7c" opacity="0.339" r="0.043" transform="matrix(36 0 0 -36 74.666 166.974)"/>
<circle fill="#a99a7c" opacity="0.3629" r="0.027" transform="matrix(36 0 0 -36 669.202 172.256)"/>
<circle fill="#a99a7c" opacity="0.3796" r="0.027" transform="matrix(36 0 0 -36 167.136 175.898)"/>
<circle fill="#a99a7c" opacity="0.3975" r="0.03" transform="matrix(36 0 0 -36 392.692 183.881)"/>
<circle fill="#a99a7c" opacity="0.3483" r="0.021" transform="matrix(36 0 0 -36 586.755 191.575)"/>
<circle fill="#a99a7c" opacity="0.3997" r="0.021" transform="matrix(36 0 0 -36 86.501 192.108)"/>
<circle fill="#a99a7c" opacity="0.4193" r="0.037" transform="matrix(36 0 0 -36 585.08 195.896)"/>
<circle fill="#a99a7c" opacity="0.4188" r="0.029" transform="matrix(36 0 0 -36 123.508 198.841)"/>
<circle fill="#a99a7c" opacity="0.434" r="0.037" transform="matrix(36 0 0 -36 115.274 200.135)"/>
<circle fill="#a99a7c" opacity="0.2921" r="0.036" transform="matrix(36 0 0 -36 697.821 207.807)"/>
<circle fill="#a99a7c" opacity="0.3769" r="0.039" transform="matrix(36 0 0 -36 188.362 227.463)"/>
<circle fill="#a99a7c" opacity="0.5359" r="0.018" transform="matrix(36 0 0 -36 116.003 229.597)"/>
<circle fill="#a99a7c" opacity="0.4742" r="0.037" transform="matrix(36 0 0 -36 81.162 230.577)"/>
<circle fill="#a99a7c" opacity="0.3102" r="0.042" transform="matrix(36 0 0 -36 423.482 232.118)"/>
<circle fill="#a99a7c" opacity="0.2946" r="0.018" transform="matrix(36 0 0 -36 619.266 238.325)"/>
<circle fill="#a99a7c" opacity="0.3072" r="0.015" transform="matrix(36 0 0 -36 185.699 239.075)"/>
<circle fill="#a99a7c" opacity="0.422" r="0.033" transform="matrix(36 0 0 -36 687.507 240.873)"/>
<circle fill="#a99a7c" opacity="0.3118" r="0.024" transform="matrix(36 0 0 -36 123.511 249.552)"/>
<circle fill="#a99a7c" opacity="0.3813" r="0.031" transform="matrix(36 0 0 -36 131.969 257.323)"/>
<circle fill="#a99a7c" opacity="0.548" r="0.024" transform="matrix(36 0 0 -36 -54.299 257.908)"/>
<circle fill="#a99a7c" opacity="0.4529" r="0.015" transform="matrix(36 0 0 -36 372.42 270.792)"/>
<circle fill="#a99a7c" opacity="0.5232" r="0.018" transform="matrix(36 0 0 -36 179.378 273.834)"/>
<circle fill="#a99a7c" opacity="0.2967" r="0.019" transform="matrix(36 0 0 -36 567.121 276.292)"/>
<circle fill="#a99a7c" opacity="0.3917" r="0.025" transform="matrix(36 0 0 -36 135.939 281.12)"/>
<circle fill="#a99a7c" opacity="0.4548" r="0.031" transform="matrix(36 0 0 -36 672.102 282.518)"/>
<circle fill="#a99a7c" opacity="0.3373" r="0.037" transform="matrix(36 0 0 -36 406.548 290.148)"/>
<circle fill="#a99a7c" opacity="0.3117" r="0.04" transform="matrix(36 0 0 -36 357.598 291.222)"/>
<circle fill="#a99a7c" opacity="0.2923" r="0.028" transform="matrix(36 0 0 -36 178.342 292.795)"/>
<circle fill="#a99a7c" opacity="0.3827" r="0.041" transform="matrix(36 0 0 -36 79.783 293.646)"/>
<circle fill="#a99a7c" opacity="0.2807" r="0.017" transform="matrix(36 0 0 -36 257.407 301.382)"/>
<circle fill="#a99a7c" opacity="0.3518" r="0.022" transform="matrix(36 0 0 -36 446.295 304.861)"/>
<circle fill="#a99a7c" opacity="0.4276" r="0.045" transform="matrix(36 0 0 -36 251.644 309.738)"/>
<circle fill="#a99a7c" opacity="0.4479" r="0.023" transform="matrix(36 0 0 -36 -41.703 314.816)"/>
<circle fill="#a99a7c" opacity="0.3734" r="0.041" transform="matrix(36 0 0 -36 329.348 315.139)"/>
<circle fill="#a99a7c" opacity="0.3268" r="0.042" transform="matrix(36 0 0 -36 584.381 317.652)"/>
<circle fill="#a99a7c" opacity="0.3766" r="0.036" transform="matrix(36 0 0 -36 38.093 318.658)"/>
<circle fill="#a99a7c" opacity="0.4354" r="0.026" transform="matrix(36 0 0 -36 532.491 319.02)"/>
<circle fill="#a99a7c" opacity="0.3238" r="0.02" transform="matrix(36 0 0 -36 308.391 326.454)"/>
<circle fill="#a99a7c" opacity="0.5043" r="0.028" transform="matrix(36 0 0 -36 58.346 326.962)"/>
<circle fill="#a99a7c" opacity="0.3536" r="0.033" transform="matrix(36 0 0 -36 530.593 327.413)"/>
<circle fill="#a99a7c" opacity="0.4108" r="0.03" transform="matrix(36 0 0 -36 390.673 328.236)"/>
<circle fill="#a99a7c" opacity="0.2548" r="0.043" transform="matrix(36 0 0 -36 30.294 328.536)"/>
<circle fill="#a99a7c" opacity="0.4903" r="0.021" transform="matrix(36 0 0 -36 6.151 329.867)"/>
<circle fill="#a99a7c" opacity="0.3888" r="0.039" transform="matrix(36 0 0 -36 211.19 330.384)"/>
<circle fill="#a99a7c" opacity="0.2976" r="0.026" transform="matrix(36 0 0 -36 168.353 335.022)"/>
<circle fill="#a99a7c" opacity="0.5265" r="0.021" transform="matrix(36 0 0 -36 406.056 343.915)"/>
<circle fill="#a99a7c" opacity="0.4881" r="0.03" transform="matrix(36 0 0 -36 261.553 345.808)"/>
<circle fill="#a99a7c" opacity="0.547" r="0.016" transform="matrix(36 0 0 -36 445.758 349.417)"/>
<circle fill="#a99a7c" opacity="0.3507" r="0.021" transform="matrix(36 0 0 -36 -52.448 352.812)"/>
<circle fill="#a99a7c" opacity="0.3563" r="0.016" transform="matrix(36 0 0 -36 325.496 357.271)"/>
<circle fill="#a99a7c" opacity="0.337" r="0.021" transform="matrix(36 0 0 -36 459.15 357.375)"/>
<path d="M460,0Q400,0 362.5,23Q325,46 319,87L315,108L279,39Q243,43 222.5,45.5Q202,48 189,52Q176,56 161,62Q143,69 121.5,80.5Q100,92 84,105.5Q68,119 68,131Q68,140 74.5,158.5Q81,177 89.5,195.5Q98,214 104,224Q112,238 129,255Q155,280 195,305.5Q235,331 278,348L274,375Q286,386 298,395Q310,404 322.5,412Q335,420 347,427Q349,346 352,265Q355,184 356,103Q403,76 460,76Q469,76 469,68L469,8Q469,0 460,0ZM313,120Q307,159 300.5,200.5Q294,242 287,283Q168,243 117,178Q144,154 175.5,142Q207,130 242,125Q259,123 277,122Q295,121 313,120Z" fill="#3a3226" transform="matrix(0.022 0 0 -0.022 228.481 158.4)"/>
<path d="M0,0Q-8,0 -8,8L-8,68Q-8,76 0,76Q29,76 56,82.5Q83,89 109,102Q103,155 95,250Q87,345 78,482Q75,515 72.5,548.5Q70,582 68,615Q83,631 99.5,644.5Q116,658 135,671Q137,625 139,562Q141,499 143,418.5Q145,338 146,240Q146,206 147,171.5Q148,137 149,103Q194,76 253,76Q262,76 262,68L262,8Q262,0 253,0Q180,0 138,36Q101,15 72,7.5Q43,0 0,0Z" fill="#3a3226" transform="matrix(0.022 0 0 -0.022 238.244 158.4)"/>
<path d="M-1,0Q-10,0 -10,8L-10,68Q-10,76 -1,76Q59,76 110,103Q107,141 104,178Q101,215 98,251Q89,345 80,436Q71,527 60,615Q74,630 90.5,644Q107,658 126,671Q129,617 133,546.5Q137,476 143,388Q148,315 150,251.5Q152,188 153,135Q153,118 143,89.5Q133,61 118,35Q109,18 79,9Q49,0 -1,0Z" fill="#3a3226" transform="matrix(0.022 0 0 -0.022 243.536 158.4)"/>
<path d="M104,0Q103,88 100.5,168Q98,248 94.5,321Q91,394 87,459Q83,524 77,582Q75,609 80.5,627Q86,645 101.5,655.5Q117,666 143,671Q147,652 156.5,619.5Q166,587 178,552L151,529Q155,455 156.5,377Q158,299 156.5,209Q155,119 150,8L104,0Z" fill="#3a3226" transform="matrix(0.022 0 0 -0.022 248.115 158.4)"/>
<path d="M460,0Q400,0 362.5,23Q325,46 319,87L315,108L279,39Q243,43 222.5,45.5Q202,48 189,52Q176,56 161,62Q143,69 121.5,80.5Q100,92 84,105.5Q68,119 68,131Q68,140 74.5,158.5Q81,177 89.5,195.5Q98,214 104,224Q112,238 129,255Q155,280 195,305.5Q235,331 278,348L274,375Q286,386 298,395Q310,404 322.5,412Q335,420 347,427Q349,346 352,265Q355,184 356,103Q403,76 460,76Q469,76 469,68L469,8Q469,0 460,0ZM313,120Q307,159 300.5,200.5Q294,242 287,283Q168,243 117,178Q144,154 175.5,142Q207,130 242,125Q259,123 277,122Q295,121 313,120Z" fill="#3a3226" transform="matrix(0.022 0 0 -0.022 258.03 158.4)"/>
<path d="M315,0Q267,0 224,7.5Q181,15 141,30Q93,12 62.5,6Q32,0 0,0Q-8,0 -8,8L-8,68Q-8,76 0,76Q17,76 33,79Q49,82 65,86Q61,94 59.5,101.5Q58,109 58,117Q58,145 72,180Q86,215 109.5,248.5Q133,282 162,305Q206,340 245,340Q262,340 275,320.5Q288,301 301,271Q308,257 314,241Q320,225 326,208Q338,174 352,145Q366,116 382,96Q399,76 419,76Q430,76 430,66L430,11Q430,0 419,0Q369,0 328,44L315,0ZM309,69Q287,101 270,153Q253,205 247,263Q222,252 194,230.5Q166,209 143.5,184Q121,159 110,137Q143,110 192.5,93Q242,76 309,69Z" fill="#3a3226" transform="matrix(0.022 0 0 -0.022 267.793 158.4)"/>
<path d="M0,0Q-8,0 -8,8L-8,68Q-8,76 0,76Q74,76 131.5,82.5Q189,89 231,102Q298,125 330.5,135.5Q363,146 387,150Q368,160 348.5,172.5Q329,185 310,200Q270,232 244.5,244Q219,256 193,256Q162,256 141,248Q120,240 83,217Q76,225 72.5,234.5Q69,244 69,256Q69,294 102,317Q135,340 189,340Q221,340 253.5,326.5Q286,313 329,281Q382,243 418.5,223.5Q455,204 492,196Q511,192 538.5,189.5Q566,187 602,187L563,114Q547,116 526.5,117.5Q506,119 483,119Q460,119 439.5,115Q419,111 391.5,99Q364,87 319,64Q282,45 250.5,32.5Q219,20 184.5,13Q150,6 106,3Q62,0 0,0Z" fill="#3a3226" transform="matrix(0.022 0 0 -0.022 276.714 158.4)"/>
<path d="M111,-204Q95,-204 70.5,-195Q46,-186 21,-173Q-4,-160 -20,-148L-7,-115Q21,-120 44.5,-123Q68,-126 88,-126Q163,-126 216.5,-81Q270,-36 298,49Q291,65 283.5,80.5Q276,96 267,112Q233,173 217,209.5Q201,246 201,271Q201,297 216,312.5Q231,328 259,341Q263,325 271,302Q279,279 288,255.5Q297,232 304,212Q317,177 326,143Q335,109 335,81Q335,3 305.5,-63.5Q276,-130 225,-167Q173,-204 111,-204Z" fill="#3a3226" transform="matrix(0.022 0 0 -0.022 290.451 158.4)"/>
<path d="M193,-203Q172,-203 141.5,-193.5Q111,-184 81.5,-169Q52,-154 34,-139L48,-106Q75,-116 105.5,-120.5Q136,-125 170,-125Q245,-125 298.5,-80.5Q352,-36 380,49L379,57Q350,29 315,14.5Q280,0 245,0Q187,0 153.5,35.5Q120,71 120,129Q120,180 140.5,229.5Q161,279 194,310Q227,340 261,340Q300,340 335.5,305.5Q371,271 394,207Q406,175 411.5,143.5Q417,112 417,81Q417,34 402.5,-13Q388,-60 362.5,-99.5Q337,-139 303,-165Q251,-203 193,-203ZM269,82Q294,82 314.5,86Q335,90 370,104Q358,151 336,187Q314,223 288,240Q267,255 246,255Q225,255 205,239.5Q185,224 171,200Q158,176 158,157Q158,121 187,101.5Q216,82 269,82Z" fill="#3a3226" transform="matrix(0.022 0 0 -0.022 298.789 158.4)"/>
<path d="M99,-305Q95,-248 90.5,-189.5Q86,-131 79,-70Q74,-22 71,19Q68,60 68,93Q68,99 69.5,106.5Q71,114 73,123Q76,132 83.5,149.5Q91,167 103,192Q105,197 119,208.5Q133,220 153,234Q173,248 193.5,262Q214,276 230,286Q274,312 307.5,326Q341,340 362,340Q372,340 381,332.5Q390,325 399,309Q409,293 420,268Q431,243 444,208Q456,174 468,149Q480,124 490,108Q513,76 536,76Q547,76 547,66L547,11Q547,0 536,0Q487,0 445,43L433,0Q364,0 305.5,15Q247,30 211,56.5Q175,83 175,117Q175,149 194,186Q171,170 150,155Q129,140 110,126Q114,84 122,24.5Q130,-35 143,-112Q148,-151 154,-190Q160,-229 166,-268Q151,-278 134.5,-287.5Q118,-297 99,-305ZM426,69Q404,104 386.5,157Q369,210 364,264Q336,250 308.5,228.5Q281,207 259.5,183Q238,159 228,138Q293,83 426,69Z" fill="#3a3226" transform="matrix(0.022 0 0 -0.022 313.671 158.4)"/>
<path d="M0,0Q-8,0 -8,8L-8,68Q-8,76 0,76Q123,76 213,102Q251,112 295,135Q285,167 263.5,196.5Q242,226 210,253Q185,274 154.5,293.5Q124,313 86,331Q43,352 22,370.5Q1,389 1,415Q1,434 6,447.5Q11,461 21,471Q30,480 49.5,491.5Q69,503 100.5,518.5Q132,534 177,554Q222,574 281,598.5Q340,623 415,654Q430,639 430,616Q430,593 420,580Q410,567 388,558Q331,535 274.5,511Q218,487 161.5,463.5Q105,440 48,417Q121,398 187.5,357Q254,316 293,264Q335,210 335,164Q335,142 329,124Q389,76 467,76Q476,76 476,68L476,8Q476,0 467,0Q419,0 375.5,17.5Q332,35 297,73Q290,66 281,59.5Q272,53 262,47Q179,0 0,0Z" fill="#3a3226" transform="matrix(0.022 0 0 -0.022 325.076 158.4)"/>
<path d="M0,0Q-8,0 -8,8L-8,68Q-8,76 0,76Q62,76 105,81.5Q148,87 166,100Q177,107 192,131.5Q207,156 236,211Q241,219 248.5,223.5Q256,228 267,228Q279,228 292,220Q286,205 275.5,181.5Q265,158 256,138Q247,118 243,114Q277,93 306,84.5Q335,76 369,76Q377,76 377,68L377,8Q377,0 369,0Q276,0 211,58L195,37Q188,30 156.5,21Q125,12 82.5,6Q40,0 0,0Z" fill="#3a3226" transform="matrix(0.022 0 0 -0.022 334.99 158.4)"/>
<path d="M0,0Q-8,0 -8,8L-8,68Q-8,76 0,76Q29,76 56,82.5Q83,89 109,102Q103,155 95,250Q87,345 78,482Q75,515 72.5,548.5Q70,582 68,615Q83,631 99.5,644.5Q116,658 135,671Q137,625 139,562Q141,499 143,418.5Q145,338 146,240Q146,206 147,171.5Q148,137 149,103Q194,76 253,76Q262,76 262,68L262,8Q262,0 253,0Q180,0 138,36Q101,15 72,7.5Q43,0 0,0Z" fill="#3a3226" transform="matrix(0.022 0 0 -0.022 342.766 158.4)"/>
<path d="M0,0Q-8,0 -8,8L-8,68Q-8,76 0,76Q32,76 63,77Q94,78 125,79Q101,95 83,122Q65,149 65,180Q65,209 75.5,239.5Q86,270 104.5,298Q123,326 148,345Q185,374 225,374Q260,374 291.5,357Q323,340 365,303L347,271Q307,286 289.5,290Q272,294 250,294Q219,294 187,285Q155,276 122,257Q122,214 142.5,179Q163,144 203,122Q242,101 296,98Q322,103 344.5,109Q367,115 395.5,125.5Q424,136 466,152Q473,146 476,136.5Q479,127 479,116Q479,98 473.5,87.5Q468,77 457,70Q453,68 432,62.5Q411,57 386,51Q283,25 193,12.5Q103,0 0,0Z" fill="#3a3226" transform="matrix(0.022 0 0 -0.022 348.058 158.4)"/>
<path d="M87,-305Q87,-267 84.5,-220Q82,-173 77,-118Q73,-68 70.5,-37Q68,-6 68,5Q68,24 77.5,48Q87,72 100,98Q122,105 144,110Q166,115 189,119Q212,123 237.5,125.5Q263,128 293,129.5Q323,131 358,131L337,162Q306,214 279,240Q252,266 229,266Q205,266 183.5,249Q162,232 136,192L104,208Q130,276 168,312.5Q206,349 248,349Q271,349 292.5,333.5Q314,318 339,284Q371,239 397.5,209.5Q424,180 450,160L412,58Q359,58 315,55.5Q271,53 234,48.5Q197,44 165.5,36.5Q134,29 106,20Q111,-10 116,-39Q121,-68 126,-97Q136,-146 143,-188.5Q150,-231 154,-268Q140,-278 123.5,-287.5Q107,-297 87,-305Z" fill="#3a3226" transform="matrix(0.022 0 0 -0.022 363.74 158.4)"/>
<path d="M308,100Q286,151 262,196Q238,241 210,280Q189,312 165,340Q141,368 115,393L78,393Q55,416 44.5,435.5Q34,455 34,480Q34,501 45.5,514Q57,527 72,534Q104,514 134.5,482Q165,450 193,412Q221,374 244.5,332.5Q268,291 284,252Q289,239 299,212Q309,185 318.5,158Q328,131 333,116L308,100Z" fill="#3a3226" transform="matrix(0.022 0 0 -0.022 374.302 158.4)"/>
<path d="M-244,0L-247,35Q-191,49 -146,61.5Q-101,74 -66,90Q-31,105 -4,125.5Q23,146 44,175Q68,208 84,256Q100,304 110,362Q121,420 126,484.5Q131,549 133,615Q152,635 168,647Q184,659 200,671Q202,641 203,612Q204,583 205,554Q206,525 206.5,496.5Q207,468 207.5,440Q208,412 209,383Q210,335 210.5,297.5Q211,260 211.5,228.5Q212,197 213,167Q214,137 215,103Q224,97 234,93Q244,89 255,85Q269,81 284.5,78.5Q300,76 319,76Q327,76 327,68L327,8Q327,0 319,0Q286,0 254.5,9Q223,18 202,37.5Q181,57 177,87Q171,136 166.5,179Q162,222 159,263Q159,273 157,300Q155,327 153.5,356.5Q152,386 150,405Q148,383 144,353Q140,323 135.5,291.5Q131,260 125.5,232.5Q120,205 115,187Q105,155 94,129Q83,103 69,83Q26,21 -41,12Q-96,6 -143.5,3.5Q-191,1 -244,0Z" fill="#3a3226" transform="matrix(0.022 0 0 -0.022 380.782 158.4)"/>
<path d="M226,0Q198,0 161,9Q124,18 104,31Q90,17 62,8.5Q34,0 0,0Q-8,0 -8,8L-8,68Q-8,76 0,76Q28,76 46.5,81Q65,86 81,99Q98,113 106.5,126.5Q115,140 134,171Q139,179 146.5,183Q154,187 165,187Q179,187 189,180Q174,142 163.5,119.5Q153,97 148,89Q156,85 180.5,80.5Q205,76 237,76Q260,76 279.5,79Q299,82 315,86Q322,97 330.5,124Q339,151 348,179Q357,207 363,220Q372,240 380,246Q388,252 403,252Q417,252 427,245Q420,229 407.5,193Q395,157 375,91Q390,84 401,81.5Q412,79 428,79Q454,79 483,89Q488,95 495,113Q502,131 512,161Q520,186 529,208Q538,230 547,245Q551,253 559,256.5Q567,260 578,260Q592,260 602,253Q595,237 582.5,201.5Q570,166 552,111Q587,92 612,84Q637,76 671,76Q680,76 680,68L680,8Q680,0 671,0Q632,0 593.5,15Q555,30 529,54Q526,47 523,40.5Q520,34 515,27Q508,15 481,7.5Q454,0 427,0Q381,0 347,25Q340,16 319,10.5Q298,5 272.5,3Q247,1 226,0Z" fill="#3a3226" transform="matrix(0.022 0 0 -0.022 387.478 158.4)"/>
<path d="M-1,0Q-10,0 -10,8L-10,68Q-10,76 -1,76Q59,76 110,103Q107,141 104,178Q101,215 98,251Q89,345 80,436Q71,527 60,615Q74,630 90.5,644Q107,658 126,671Q129,617 133,546.5Q137,476 143,388Q148,315 150,251.5Q152,188 153,135Q153,118 143,89.5Q133,61 118,35Q109,18 79,9Q49,0 -1,0Z" fill="#3a3226" transform="matrix(0.022 0 0 -0.022 401.799 158.4)"/>
<path d="M104,0Q103,88 100.5,168Q98,248 94.5,321Q91,394 87,459Q83,524 77,582Q75,609 80.5,627Q86,645 101.5,655.5Q117,666 143,671Q147,652 156.5,619.5Q166,587 178,552L151,529Q155,455 156.5,377Q158,299 156.5,209Q155,119 150,8L104,0Z" fill="#3a3226" transform="matrix(0.022 0 0 -0.022 406.378 158.4)"/>
<path d="M217,-166Q195,-149 178.5,-133.5Q162,-118 151,-104Q156,-99 172,-82Q188,-65 215,-37Q221,-43 236.5,-58Q252,-73 277,-97Q258,-127 217,-166ZM67,-180Q45,-162 28,-146.5Q11,-131 0,-119Q14,-106 30,-89.5Q46,-73 65,-51Q71,-58 86,-73Q101,-88 126,-111Q117,-126 102,-143Q87,-160 67,-180Z" fill="#3a3226" transform="matrix(0.022 0 0 -0.022 336.157 158.767)"/>
<path d="M217,762Q195,779 178.5,794.5Q162,810 151,824Q156,829 172,846Q188,863 215,891Q221,885 236.5,870Q252,855 277,831Q258,801 217,762ZM67,748Q45,766 28,781.5Q11,797 0,809Q14,822 30,838.5Q46,855 65,877Q71,870 86,855Q101,840 126,817Q117,802 102,785Q87,768 67,748Z" fill="#3a3226" transform="matrix(0.022 0 0 -0.022 259.995 164.75)"/>
<path d="M111,-204Q95,-204 70.5,-195Q46,-186 21,-173Q-4,-160 -20,-148L-7,-115Q21,-120 44.5,-123Q68,-126 88,-126Q163,-126 216.5,-81Q270,-36 298,49Q291,65 283.5,80.5Q276,96 267,112Q233,173 217,209.5Q201,246 201,271Q201,297 216,312.5Q231,328 259,341Q263,325 271,302Q279,279 288,255.5Q297,232 304,212Q317,177 326,143Q335,109 335,81Q335,3 305.5,-63.5Q276,-130 225,-167Q173,-204 111,-204Z" fill="#3a3226" transform="matrix(0.022 0 0 -0.022 245.642 216)"/>
<path d="M156,0Q34,0 34,63Q34,80 38.5,93Q43,106 52,116Q77,96 109,86Q141,76 188,76Q255,76 324,97Q316,119 305.5,142Q295,165 282,188Q255,236 242,261Q229,286 225,301Q221,316 221,332Q221,357 234,373.5Q247,390 273,398Q282,376 293.5,349Q305,322 317,296Q329,270 337,251Q352,219 362,191.5Q372,164 372,141Q372,131 368,115Q364,99 356,79.5Q348,60 336,39Q300,20 255,10Q210,0 156,0Z" fill="#3a3226" transform="matrix(0.022 0 0 -0.022 253.98 216)"/>
<path d="M262,0Q223,0 192,10.5Q161,21 142,40.5Q123,60 120,87Q117,116 113.5,150Q110,184 106,227Q102,270 97.5,325.5Q93,381 88,452.5Q83,524 76,615Q90,629 107,643.5Q124,658 144,671Q147,593 147.5,517Q148,441 149.5,356.5Q151,272 155,169L158,102Q181,89 207.5,82.5Q234,76 262,76Q270,76 270,68L270,8Q270,0 262,0Z" fill="#3a3226" transform="matrix(0.022 0 0 -0.022 262.922 216)"/>
<path d="M0,0Q-8,0 -8,8L-8,68Q-8,76 0,76Q32,76 63,77Q94,78 125,79Q101,95 83,122Q65,149 65,180Q65,209 75.5,239.5Q86,270 104.5,298Q123,326 148,345Q185,374 225,374Q260,374 291.5,357Q323,340 365,303L347,271Q307,286 289.5,290Q272,294 250,294Q219,294 187,285Q155,276 122,257Q122,214 142.5,179Q163,144 203,122Q242,101 296,98Q322,103 344.5,109Q367,115 395.5,125.5Q424,136 466,152Q473,146 476,136.5Q479,127 479,116Q479,98 473.5,87.5Q468,77 457,70Q453,68 432,62.5Q411,57 386,51Q283,25 193,12.5Q103,0 0,0Z" fill="#3a3226" transform="matrix(0.022 0 0 -0.022 268.387 216)"/>
<path d="M99,-305Q95,-248 90.5,-189.5Q86,-131 79,-70Q74,-22 71,19Q68,60 68,93Q68,99 69.5,106.5Q71,114 73,123Q76,132 83.5,149.5Q91,167 103,192Q105,197 119,208.5Q133,220 153,234Q173,248 193.5,262Q214,276 230,286Q274,312 307.5,326Q341,340 362,340Q372,340 381,332.5Q390,325 399,309Q409,293 420,268Q431,243 444,208Q456,174 468,149Q480,124 490,108Q513,76 536,76Q547,76 547,66L547,11Q547,0 536,0Q487,0 445,43L433,0Q364,0 305.5,15Q247,30 211,56.5Q175,83 175,117Q175,149 194,186Q171,170 150,155Q129,140 110,126Q114,84 122,24.5Q130,-35 143,-112Q148,-151 154,-190Q160,-229 166,-268Q151,-278 134.5,-287.5Q118,-297 99,-305ZM426,69Q404,104 386.5,157Q369,210 364,264Q336,250 308.5,228.5Q281,207 259.5,183Q238,159 228,138Q293,83 426,69Z" fill="#3a3226" transform="matrix(0.022 0 0 -0.022 284.068 216)"/>
<path d="M0,0Q-8,0 -8,8L-8,68Q-8,76 0,76Q49,76 96.5,80.5Q144,85 183,93.5Q222,102 245,113Q240,133 231,160.5Q222,188 208,223Q199,249 194,265.5Q189,282 189,290Q189,312 207,335Q225,358 255,374Q268,316 276,278.5Q284,241 288,214Q292,187 292,157Q292,140 283.5,114.5Q275,89 258,55Q231,39 188.5,26.5Q146,14 97,7Q48,0 0,0Z" fill="#3a3226" transform="matrix(0.022 0 0 -0.022 295.473 216)"/>
<path d="M38,0L38,42L51,42Q85,42 109,54.5Q133,67 133,114L133,604Q133,648 108.5,660Q84,672 51,672L38,672L38,714L329,714L329,672L316,672Q282,672 258,659.5Q234,647 234,600L234,398L559,398L559,600Q559,647 535,659.5Q511,672 477,672L464,672L464,714L755,714L755,672L742,672Q708,672 684,659.5Q660,647 660,600L660,109Q660,65 684.5,53.5Q709,42 742,42L755,42L755,0L464,0L464,42L477,42Q511,42 535,54.5Q559,67 559,114L559,348L234,348L234,114Q234,67 258,54.5Q282,42 316,42L329,42L329,0L38,0Z" fill="#3a3226" transform="matrix(0.022 0 0 -0.022 302.882 216)"/>
<path d="M287,-10Q178,-10 116.5,62Q55,134 55,264Q55,404 113,475Q171,546 277,546Q374,546 429.5,486Q485,426 485,307L485,261L152,261Q154,152 191.5,102.5Q229,53 301,53Q353,53 389.5,74.5Q426,96 444,123Q451,120 457,111Q463,102 463,89Q463,69 444,46Q425,23 386,6.5Q347,-10 287,-10ZM384,315Q384,395 359.5,443.5Q335,492 275,492Q220,492 189.5,446.5Q159,401 154,315L384,315Z" fill="#3a3226" transform="matrix(0.022 0 0 -0.022 320.011 216)"/>
<path d="M13,0L13,42L26,42Q60,42 84,54.5Q108,67 108,114L108,650Q108,680 96.5,694.5Q85,709 66.5,713.5Q48,718 26,718L13,718L13,760L202,760L202,114Q202,67 226,54.5Q250,42 284,42L297,42L297,0L13,0Z" fill="#3a3226" transform="matrix(0.022 0 0 -0.022 331.567 216)"/>
<path d="M13,0L13,42L26,42Q60,42 84,54.5Q108,67 108,114L108,650Q108,680 96.5,694.5Q85,709 66.5,713.5Q48,718 26,718L13,718L13,760L202,760L202,114Q202,67 226,54.5Q250,42 284,42L297,42L297,0L13,0Z" fill="#3a3226" transform="matrix(0.022 0 0 -0.022 338.263 216)"/>
<path d="M287,-10Q179,-10 117,59Q55,128 55,269Q55,409 114.5,477.5Q174,546 290,546Q398,546 460,477.5Q522,409 522,269Q522,128 462.5,59Q403,-10 287,-10ZM289,42Q364,42 394.5,99.5Q425,157 425,269Q425,381 394,437Q363,493 288,493Q213,493 182.5,437Q152,381 152,269Q152,157 183,99.5Q214,42 289,42Z" fill="#3a3226" transform="matrix(0.022 0 0 -0.022 344.959 216)"/>
<path d="M249,-262Q164,-262 116,-213Q68,-164 68,-74Q68,-54 69.5,-37Q71,-20 75,1.5Q79,23 87,56L124,47Q113,1 113,-24Q113,-97 149.5,-138Q186,-179 251,-179Q299,-179 350,-162.5Q401,-146 440,-117Q460,-103 474,-87Q488,-71 496,-54L470,107Q462,158 452.5,216.5Q443,275 434,333Q425,391 417.5,443Q410,495 405.5,534Q401,573 401,593Q401,627 416.5,645.5Q432,664 466,671Q473,649 483,615Q493,581 502,552L479,532L513,220Q519,170 523.5,127Q528,84 530.5,48.5Q533,13 533,-17Q533,-78 494.5,-134.5Q456,-191 388,-226Q354,-244 319.5,-253Q285,-262 249,-262Z" fill="#3a3226" transform="matrix(0.022 0 0 -0.022 366.969 216)"/>
<path d="M262,0Q223,0 192,10.5Q161,21 142,40.5Q123,60 120,87Q117,116 113.5,150Q110,184 106,227Q102,270 97.5,325.5Q93,381 88,452.5Q83,524 76,615Q90,629 107,643.5Q124,658 144,671Q147,593 147.5,517Q148,441 149.5,356.5Q151,272 155,169L158,102Q181,89 207.5,82.5Q234,76 262,76Q270,76 270,68L270,8Q270,0 262,0Z" fill="#3a3226" transform="matrix(0.022 0 0 -0.022 379.821 216)"/>
<path d="M1,0Q-8,0 -8,9L-8,67Q-8,76 1,76Q109,76 183.5,89Q258,102 321,130Q319,150 315.5,169.5Q312,189 308,208Q277,183 240,168Q203,153 166,153Q122,153 94,186.5Q66,220 66,270Q66,321 83.5,366Q101,411 128,437Q142,450 158,457Q174,464 190,464Q242,464 282,426.5Q322,389 346,321Q357,287 363,250.5Q369,214 369,174Q369,163 367.5,144.5Q366,126 358.5,106.5Q351,87 334,72Q311,56 263.5,39Q216,22 149.5,11Q83,0 1,0ZM189,229Q239,229 295,254Q276,315 245,347Q214,379 175,379Q145,379 124.5,351.5Q104,324 104,290Q104,259 124.5,244Q145,229 189,229Z" fill="#3a3226" transform="matrix(0.022 0 0 -0.022 385.286 216)"/>
<path d="M217,762Q195,779 178.5,794.5Q162,810 151,824Q156,829 172,846Q188,863 215,891Q221,885 236.5,870Q252,855 277,831Q258,801 217,762ZM67,748Q45,766 28,781.5Q11,797 0,809Q14,822 30,838.5Q46,855 65,877Q71,870 86,855Q101,840 126,817Q117,802 102,785Q87,768 67,748Z" fill="#3a3226" transform="matrix(0.022 0 0 -0.022 386.215 221.249)"/>
<path d="M72,748Q28,781 0,813Q26,839 43,857Q60,875 70,886Q86,869 102.5,852.5Q119,836 136,821Q125,805 108.5,786.5Q92,768 72,748Z" fill="#3a3226" transform="matrix(0.022 0 0 -0.022 271.519 222.674)"/>
<path d="M60,748Q41,763 26,777Q11,791 0,803Q12,814 26.5,829.5Q41,845 58,864Q63,858 77,844.5Q91,831 113,809Q104,796 91,780.5Q78,765 60,748ZM202,761Q185,775 170.5,788.5Q156,802 143,816Q152,824 167,839.5Q182,855 201,877Q215,863 228.5,849Q242,835 256,822Q246,808 233,792.5Q220,777 202,761ZM131,843Q118,851 103.5,863.5Q89,876 75,892Q90,907 103.5,921Q117,935 128,948Q138,935 151.5,921.5Q165,908 183,892Q169,876 155.5,863.5Q142,851 131,843Z" fill="#3a3226" transform="matrix(0.022 0 0 -0.022 296.92 222.998)"/>
<rect fill="#b5453c" height="0.64" rx="0.12" transform="matrix(35.854 0 0 -36.146 320 93.6)" width="1.125" x="-0.562" y="-0.32"/>
<path d="M314,0Q196,0 133,42.5Q70,85 70,170Q70,234 83,280L119,280Q118,276 117,259.5Q116,243 116,231Q116,173 138,141.5Q160,110 208,93Q232,85 263.5,80.5Q295,76 335,76Q428,76 517,95Q606,114 675,147Q670,168 661,195.5Q652,223 639,257Q629,283 624.5,299.5Q620,316 620,324Q620,345 637,367.5Q654,390 686,408Q697,359 705,318.5Q713,278 718,246.5Q723,215 723,191Q723,174 714,148.5Q705,123 688,89Q644,61 587,41Q530,21 461.5,10.5Q393,0 314,0Z" fill="#ffffff" transform="matrix(0.014 0 0 -0.014 307.007 98.66)"/>
<path d="M111,-204Q95,-204 70.5,-195Q46,-186 21,-173Q-4,-160 -20,-148L-7,-115Q21,-120 44.5,-123Q68,-126 88,-126Q163,-126 216.5,-81Q270,-36 298,49Q291,65 283.5,80.5Q276,96 267,112Q247,148 233,175.5Q219,203 211,224Q201,250 201,271Q201,297 216,312.5Q231,328 259,341Q263,328 267.5,312.5Q272,297 279,280Q295,239 305.5,208.5Q316,178 321,159Q327,140 330.5,124.5Q334,109 335,96Q369,76 413,76Q421,76 421,68L421,8Q421,0 413,0Q366,0 331,24Q320,-45 289,-96.5Q258,-148 212,-176Q166,-204 111,-204Z" fill="#ffffff" transform="matrix(0.014 0 0 -0.014 318.078 98.66)"/>
<path d="M0,0Q-8,0 -8,8L-8,68Q-8,76 0,76Q74,76 131.5,82.5Q189,89 231,102Q298,125 330.5,135.5Q363,146 387,150Q368,160 348.5,172.5Q329,185 310,200Q270,232 244.5,244Q219,256 193,256Q162,256 141,248Q120,240 83,217Q76,225 72.5,234.5Q69,244 69,256Q69,294 102,317Q135,340 189,340Q221,340 253.5,326.5Q286,313 329,281Q382,243 418.5,223.5Q455,204 492,196Q511,192 538.5,189.5Q566,187 602,187L563,114Q547,116 526.5,117.5Q506,119 483,119Q460,119 439.5,115Q419,111 391.5,99Q364,87 319,64Q282,45 250.5,32.5Q219,20 184.5,13Q150,6 106,3Q62,0 0,0Z" fill="#ffffff" transform="matrix(0.014 0 0 -0.014 323.872 98.66)"/>
<path d="M72,-175Q28,-142 0,-110Q26,-84 43,-66Q60,-48 70,-37Q86,-54 102.5,-70.5Q119,-87 136,-102Q125,-118 108.5,-136.5Q92,-155 72,-175Z" fill="#ffffff" transform="matrix(0.014 0 0 -0.014 311.424 99.109)"/>
</svg>